<?xml version="1.0" standalone="no"?><!DOCTYPE svg PUBLIC "-//W3C//DTD SVG 1.1//EN" "http://www.w3.org/Graphics/SVG/1.1/DTD/svg11.dtd"><svg t="1748594603205" class="icon" viewBox="0 0 1024 1024" version="1.1" xmlns="http://www.w3.org/2000/svg" p-id="12393" xmlns:xlink="http://www.w3.org/1999/xlink" width="200" height="200"><path d="M308.63016 740.521964h-25.151911V262.144992h104.532963v373.822676h373.84401v104.532963z" fill="#03DD9A" p-id="12394"></path><path d="M627.519698 562.005263v-165.524747h-165.546081v-81.706377h247.209791v247.231124z" fill="#03DD9A" p-id="12395"></path><path d="M512.000107 1023.998293a508.670198 508.670198 0 0 1-362.046718-149.951469A508.627532 508.627532 0 0 1 0.00192 512.000107 508.648865 508.648865 0 0 1 149.953389 149.953389 508.648865 508.648865 0 0 1 512.000107 0.00192a508.627532 508.627532 0 0 1 362.025384 149.951469A508.670198 508.670198 0 0 1 1023.998293 512.000107a508.627532 508.627532 0 0 1-149.951469 362.025384A508.627532 508.627532 0 0 1 512.000107 1023.998293z m0-981.329857A469.865003 469.865003 0 0 0 42.668436 512.000107a469.865003 469.865003 0 0 0 469.331671 469.331671 469.843669 469.843669 0 0 0 469.331671-469.331671A469.865003 469.865003 0 0 0 512.000107 42.668436z" fill="#03DD9A" p-id="12396"></path></svg>